<svg width="27" height="27" viewBox="0 0 27 27" fill="white" xmlns="http://www.w3.org/2000/svg">
<rect x="0.5" y="0.5" width="26" height="26" rx="13" stroke="#ACACAC"/>
<g clip-path="url(#clip0_1_37)">
<path d="M10.8752 19.9167C11.1743 19.9167 11.4168 19.6742 11.4168 19.375C11.4168 19.0759 11.1743 18.8334 10.8752 18.8334C10.576 18.8334 10.3335 19.0759 10.3335 19.375C10.3335 19.6742 10.576 19.9167 10.8752 19.9167Z" stroke="black" stroke-linecap="round" stroke-linejoin="round"/>
<path d="M16.8332 19.9167C17.1323 19.9167 17.3748 19.6742 17.3748 19.375C17.3748 19.0759 17.1323 18.8334 16.8332 18.8334C16.534 18.8334 16.2915 19.0759 16.2915 19.375C16.2915 19.6742 16.534 19.9167 16.8332 19.9167Z" stroke="black" stroke-linecap="round" stroke-linejoin="round"/>
<path d="M6.5415 8.54163H8.70817L10.1598 15.7945C10.2094 16.0439 10.345 16.2679 10.5431 16.4274C10.7411 16.5868 10.989 16.6715 11.2432 16.6666H16.5082C16.7624 16.6715 17.0102 16.5868 17.2083 16.4274C17.4063 16.2679 17.542 16.0439 17.5915 15.7945L18.4582 11.25H9.24984" stroke="black" stroke-linecap="round" stroke-linejoin="round"/>
</g>
<defs>
<clipPath id="clip0_1_37">
<rect width="13" height="13" fill="white" transform="translate(6 8)"/>
</clipPath>
</defs>
</svg>
